<?xml version="1.0" encoding="UTF-8"?>
<svg xmlns="http://www.w3.org/2000/svg" xmlns:xlink="http://www.w3.org/1999/xlink" width="214px" height="64px" viewBox="0 0 214 64" version="1.1">
<g id="surface1">
<path style=" stroke:none;fill-rule:nonzero;fill:rgb(92.54902%,10.980392%,13.725491%);fill-opacity:1;" d="M 31.347656 2.089844 C 38.242188 2.089844 45.140625 2.089844 52.246094 2.089844 C 51.214844 6.730469 50.171875 11.34375 49.007812 15.949219 C 48.558594 17.726562 48.109375 19.503906 47.648438 21.332031 C 53.578125 21.472656 59.511719 21.609375 65.621094 21.75 C 64.601562 26.601562 63.574219 31.425781 62.40625 36.234375 C 62.277344 36.78125 62.148438 37.324219 62.019531 37.871094 C 61.894531 38.378906 61.773438 38.890625 61.644531 39.414062 C 61.535156 39.871094 61.425781 40.324219 61.3125 40.796875 C 61.023438 41.828125 61.023438 41.828125 60.605469 42.25 C 59.582031 42.285156 58.570312 42.296875 57.546875 42.289062 C 57.242188 42.289062 56.9375 42.289062 56.621094 42.289062 C 55.640625 42.285156 54.664062 42.28125 53.683594 42.273438 C 53.019531 42.273438 52.359375 42.269531 51.695312 42.269531 C 50.066406 42.265625 48.441406 42.257812 46.8125 42.25 C 46.761719 42.507812 46.710938 42.765625 46.65625 43.03125 C 46.585938 43.367188 46.515625 43.707031 46.441406 44.054688 C 46.339844 44.558594 46.339844 44.558594 46.234375 45.070312 C 45.746094 46.855469 44.71875 47.804688 43.257812 48.863281 C 42.214844 49.359375 42.214844 49.359375 40.542969 49.359375 C 40.441406 49.839844 40.339844 50.320312 40.234375 50.816406 C 40.09375 51.472656 39.953125 52.128906 39.8125 52.785156 C 39.746094 53.097656 39.679688 53.410156 39.613281 53.734375 C 38.972656 56.683594 38.097656 59.410156 37.199219 62.328125 C 26.855469 62.121094 26.855469 62.121094 16.300781 61.910156 C 17.425781 57.277344 17.425781 57.277344 18.574219 52.550781 C 18.808594 51.574219 19.046875 50.597656 19.289062 49.59375 C 19.476562 48.824219 19.664062 48.054688 19.851562 47.285156 C 19.949219 46.882812 20.046875 46.480469 20.144531 46.066406 C 20.238281 45.683594 20.332031 45.300781 20.429688 44.90625 C 20.507812 44.574219 20.589844 44.242188 20.671875 43.898438 C 20.898438 43.085938 20.898438 43.085938 21.316406 42.25 C 15.246094 42.386719 9.179688 42.523438 2.925781 42.667969 C 3.394531 38.429688 3.394531 38.429688 3.773438 36.898438 C 3.859375 36.550781 3.945312 36.203125 4.03125 35.847656 C 4.121094 35.496094 4.207031 35.144531 4.300781 34.78125 C 4.378906 34.449219 4.460938 34.117188 4.546875 33.773438 C 4.847656 32.542969 5.152344 31.316406 5.460938 30.089844 C 6.140625 27.339844 6.820312 24.585938 7.523438 21.75 C 13.59375 21.75 19.660156 21.75 25.914062 21.75 C 26.191406 20.507812 26.464844 19.265625 26.75 17.988281 C 26.992188 17.125 27.25 16.269531 27.519531 15.417969 C 27.660156 14.960938 27.804688 14.503906 27.949219 14.035156 C 28.097656 13.570312 28.246094 13.105469 28.394531 12.628906 C 28.6875 11.703125 28.980469 10.773438 29.269531 9.847656 C 29.398438 9.441406 29.527344 9.039062 29.65625 8.621094 C 30.28125 6.460938 30.804688 4.273438 31.347656 2.089844 Z M 31.347656 2.089844 "/>
<path style=" stroke:none;fill-rule:nonzero;fill:rgb(17.647059%,18.431373%,57.254905%);fill-opacity:1;" d="M 31.347656 2.089844 C 38.242188 2.089844 45.140625 2.089844 52.246094 2.089844 C 51.214844 6.730469 50.171875 11.34375 49.007812 15.949219 C 48.558594 17.726562 48.109375 19.503906 47.648438 21.332031 C 53.578125 21.472656 59.511719 21.609375 65.621094 21.75 C 64.601562 26.601562 63.574219 31.425781 62.40625 36.234375 C 62.277344 36.78125 62.148438 37.324219 62.019531 37.871094 C 61.894531 38.378906 61.773438 38.890625 61.644531 39.414062 C 61.535156 39.871094 61.425781 40.324219 61.3125 40.796875 C 61.023438 41.828125 61.023438 41.828125 60.605469 42.25 C 59.550781 42.285156 58.507812 42.296875 57.457031 42.289062 C 56.984375 42.289062 56.984375 42.289062 56.503906 42.289062 C 55.492188 42.285156 54.484375 42.28125 53.472656 42.273438 C 52.792969 42.273438 52.109375 42.269531 51.425781 42.269531 C 49.75 42.265625 48.070312 42.257812 46.394531 42.25 C 46.269531 41.78125 46.148438 41.3125 46.019531 40.832031 C 45.6875 39.347656 45.6875 39.347656 44.84375 38.566406 C 43.625 37.929688 42.414062 37.554688 41.089844 37.175781 C 38.492188 36.429688 38.492188 36.429688 38.035156 35.972656 C 38.285156 33.214844 38.285156 33.214844 39.289062 32.210938 C 40.113281 32.113281 40.113281 32.113281 41.109375 32.128906 C 41.640625 32.132812 41.640625 32.132812 42.183594 32.136719 C 42.742188 32.144531 42.742188 32.144531 43.3125 32.15625 C 43.6875 32.160156 44.0625 32.164062 44.449219 32.167969 C 45.375 32.179688 46.304688 32.191406 47.230469 32.210938 C 47.367188 31.382812 47.507812 30.550781 47.648438 29.699219 C 46.132812 29.5625 44.613281 29.421875 43.050781 29.28125 C 43.328125 28.453125 43.601562 27.625 43.886719 26.769531 C 43.195312 26.632812 42.507812 26.496094 41.796875 26.351562 C 41.292969 24.925781 40.800781 23.496094 40.308594 22.066406 C 40.164062 21.660156 40.023438 21.253906 39.875 20.839844 C 39.742188 20.449219 39.609375 20.054688 39.46875 19.652344 C 39.28125 19.113281 39.28125 19.113281 39.09375 18.566406 C 38.847656 17.460938 38.835938 16.925781 39.289062 15.894531 C 39.945312 15.308594 39.945312 15.308594 40.777344 14.785156 C 41.078125 14.589844 41.375 14.394531 41.683594 14.195312 C 42.316406 13.792969 42.949219 13.394531 43.582031 12.996094 C 43.882812 12.800781 44.179688 12.605469 44.488281 12.40625 C 44.761719 12.230469 45.039062 12.058594 45.320312 11.878906 C 46.121094 11.164062 46.273438 10.675781 46.394531 9.621094 C 45.941406 9.070312 45.941406 9.070312 44.839844 9.160156 C 44.378906 9.167969 43.917969 9.171875 43.441406 9.175781 C 42.980469 9.179688 42.519531 9.183594 42.042969 9.1875 C 41.6875 9.191406 41.328125 9.199219 40.960938 9.203125 C 40.925781 9.453125 40.890625 9.707031 40.851562 9.964844 C 40.453125 11.140625 39.988281 11.398438 38.949219 12.046875 C 38.628906 12.246094 38.308594 12.449219 37.980469 12.660156 C 37.644531 12.863281 37.308594 13.070312 36.964844 13.28125 C 36.628906 13.492188 36.289062 13.703125 35.941406 13.921875 C 35.109375 14.445312 34.273438 14.964844 33.4375 15.476562 C 33.300781 15.199219 33.160156 14.925781 33.019531 14.640625 C 33.296875 13.804688 33.578125 12.96875 33.855469 12.128906 C 33.925781 10.980469 33.925781 10.980469 33.855469 10.039062 C 32.675781 9.371094 32.675781 9.371094 29.675781 9.621094 C 30.226562 7.136719 30.777344 4.652344 31.347656 2.089844 Z M 31.347656 2.089844 "/>
<path style=" stroke:none;fill-rule:nonzero;fill:rgb(98.823529%,97.647059%,98.039216%);fill-opacity:1;" d="M 40.542969 8.785156 C 42.335938 8.785156 44.128906 8.785156 45.976562 8.785156 C 46.253906 9.335938 46.527344 9.886719 46.8125 10.457031 C 45.292969 12.070312 43.710938 13.332031 41.875 14.5625 C 41.625 14.730469 41.375 14.902344 41.117188 15.078125 C 40.511719 15.492188 39.898438 15.902344 39.289062 16.3125 C 39.675781 18.832031 40.304688 21.246094 41.117188 23.660156 C 41.285156 24.160156 41.453125 24.660156 41.625 25.179688 C 42.085938 26.414062 42.085938 26.414062 43.121094 26.730469 C 43.371094 26.742188 43.625 26.757812 43.886719 26.769531 C 43.75 27.460938 43.609375 28.152344 43.46875 28.863281 C 44.984375 29 46.503906 29.140625 48.066406 29.28125 C 47.789062 30.246094 47.515625 31.214844 47.230469 32.210938 C 46.996094 32.214844 46.757812 32.222656 46.515625 32.226562 C 45.445312 32.257812 44.378906 32.300781 43.3125 32.339844 C 42.753906 32.355469 42.753906 32.355469 42.183594 32.367188 C 41.828125 32.382812 41.472656 32.398438 41.109375 32.414062 C 40.617188 32.429688 40.617188 32.429688 40.113281 32.445312 C 39.121094 32.5625 39.121094 32.5625 38.453125 33.882812 C 38.382812 34.980469 38.382812 34.980469 38.453125 35.972656 C 38.886719 36.101562 39.320312 36.226562 39.765625 36.359375 C 40.339844 36.535156 40.910156 36.710938 41.484375 36.890625 C 41.910156 37.011719 41.910156 37.011719 42.347656 37.136719 C 44.296875 37.753906 45.3125 38.417969 46.394531 40.15625 C 47.003906 42.265625 46.816406 43.925781 46.066406 45.949219 C 45.078125 47.699219 43.375 49.003906 41.453125 49.59375 C 40.457031 49.796875 39.546875 49.832031 38.53125 49.832031 C 38.152344 49.832031 37.769531 49.835938 37.378906 49.835938 C 36.984375 49.832031 36.585938 49.832031 36.179688 49.828125 C 35.785156 49.832031 35.394531 49.832031 34.988281 49.835938 C 34.605469 49.835938 34.222656 49.832031 33.832031 49.832031 C 33.484375 49.832031 33.140625 49.832031 32.78125 49.832031 C 31.710938 49.773438 30.71875 49.59375 29.675781 49.359375 C 29.675781 48.253906 29.675781 47.152344 29.675781 46.011719 C 30.089844 46.152344 30.503906 46.289062 30.929688 46.429688 C 32.242188 46.535156 33.558594 46.527344 34.875 46.535156 C 35.234375 46.542969 35.59375 46.554688 35.960938 46.5625 C 38.03125 46.578125 38.03125 46.578125 39.945312 45.875 C 40.65625 45.167969 40.65625 45.167969 40.726562 43.921875 C 40.519531 42.5 40.390625 42.269531 39.289062 41.410156 C 38.097656 40.945312 38.097656 40.945312 36.78125 40.574219 C 33.980469 39.75 33.980469 39.75 33.019531 38.484375 C 32.515625 36.96875 32.464844 35.894531 32.601562 34.300781 C 33.703125 32.140625 35.332031 30.761719 37.199219 29.28125 C 36.480469 26.714844 35.644531 24.257812 34.59375 21.804688 C 34.273438 20.914062 34.273438 20.914062 34.273438 19.660156 C 31.441406 21.160156 30.703125 22.886719 29.652344 25.871094 C 29.199219 27.304688 29.199219 27.304688 28.839844 29.28125 C 27.046875 29.28125 25.253906 29.28125 23.40625 29.28125 C 24.316406 25.40625 25.445312 21.636719 26.671875 17.851562 C 26.988281 16.875 27.300781 15.898438 27.609375 14.921875 C 27.8125 14.300781 28.011719 13.679688 28.214844 13.054688 C 28.308594 12.765625 28.398438 12.472656 28.496094 12.171875 C 28.898438 10.945312 29.167969 10.128906 30.09375 9.203125 C 31.90625 9.070312 32.738281 9.015625 34.273438 10.039062 C 34.164062 10.871094 34.054688 11.699219 33.945312 12.53125 C 33.832031 13.449219 33.832031 13.449219 33.855469 14.640625 C 34.976562 13.988281 36.089844 13.320312 37.199219 12.652344 C 37.519531 12.46875 37.835938 12.28125 38.164062 12.089844 C 38.46875 11.90625 38.769531 11.726562 39.078125 11.535156 C 39.5 11.285156 39.5 11.285156 39.929688 11.03125 C 40.234375 10.746094 40.234375 10.746094 40.542969 10.457031 C 40.542969 9.90625 40.542969 9.351562 40.542969 8.785156 Z M 40.542969 8.785156 "/>
<path style=" stroke:none;fill-rule:nonzero;fill:rgb(18.039216%,19.215687%,57.254905%);fill-opacity:1;" d="M 198.117188 23.425781 C 198.53125 23.5625 198.945312 23.699219 199.371094 23.84375 C 199.371094 24.394531 199.371094 24.949219 199.371094 25.515625 C 199.875 25.59375 199.875 25.59375 200.390625 25.671875 C 200.921875 25.800781 200.921875 25.800781 201.460938 25.933594 C 202.085938 27.1875 201.945312 28.472656 201.949219 29.84375 C 201.949219 30.144531 201.953125 30.449219 201.953125 30.761719 C 201.957031 31.402344 201.957031 32.042969 201.957031 32.6875 C 201.957031 33.667969 201.964844 34.652344 201.972656 35.636719 C 201.972656 36.257812 201.976562 36.878906 201.976562 37.503906 C 201.976562 37.796875 201.980469 38.09375 201.984375 38.398438 C 201.972656 40.480469 201.972656 40.480469 201.042969 41.410156 C 200.167969 41.523438 200.167969 41.523438 199.164062 41.515625 C 198.832031 41.519531 198.5 41.519531 198.15625 41.523438 C 197.28125 41.410156 197.28125 41.410156 196.445312 40.574219 C 196.332031 39.449219 196.410156 38.363281 196.445312 37.230469 C 196.996094 37.230469 197.546875 37.230469 198.117188 37.230469 C 198.117188 38.058594 198.117188 38.886719 198.117188 39.738281 C 198.808594 39.738281 199.496094 39.738281 200.207031 39.738281 C 200.070312 35.734375 199.929688 31.730469 199.789062 27.609375 C 199.238281 27.46875 198.6875 27.332031 198.117188 27.191406 C 198.53125 27.8125 198.53125 27.8125 198.953125 28.445312 C 199.003906 29.777344 199.003906 29.777344 198.953125 30.953125 C 198.539062 31.09375 198.125 31.230469 197.699219 31.371094 C 197.707031 31.695312 197.71875 32.015625 197.730469 32.351562 C 197.738281 32.980469 197.738281 32.980469 197.75 33.621094 C 197.761719 34.039062 197.769531 34.457031 197.78125 34.886719 C 197.699219 35.972656 197.699219 35.972656 196.863281 36.808594 C 196.3125 36.808594 195.761719 36.808594 195.191406 36.808594 C 195.226562 36.488281 195.261719 36.164062 195.296875 35.832031 C 195.363281 35.203125 195.363281 35.203125 195.425781 34.5625 C 195.46875 34.144531 195.515625 33.726562 195.558594 33.296875 C 195.699219 32.214844 195.699219 32.214844 195.191406 31.371094 C 195.738281 30.273438 195.738281 30.273438 196.445312 29.28125 C 196.722656 29.28125 196.996094 29.28125 197.28125 29.28125 C 197.132812 29.039062 196.988281 28.796875 196.835938 28.550781 C 196.359375 27.402344 196.425781 27.082031 196.863281 25.933594 C 197.269531 25.089844 197.683594 24.253906 198.117188 23.425781 Z M 198.117188 23.425781 "/>
<path style=" stroke:none;fill-rule:nonzero;fill:rgb(18.039216%,19.215687%,57.254905%);fill-opacity:1;" d="M 182.652344 29.28125 C 183.34375 29.417969 184.03125 29.558594 184.742188 29.699219 C 184.734375 30.078125 184.726562 30.457031 184.714844 30.851562 C 184.738281 31.976562 184.855469 32.8125 185.160156 33.882812 C 185.160156 34.160156 185.160156 34.433594 185.160156 34.71875 C 185.851562 34.71875 186.539062 34.71875 187.25 34.71875 C 187.386719 33.890625 187.527344 33.0625 187.667969 32.210938 C 187.253906 32.070312 186.839844 31.933594 186.414062 31.789062 C 186.828125 30.960938 187.242188 30.132812 187.667969 29.28125 C 188.703125 29.488281 188.703125 29.488281 189.757812 29.699219 C 189.757812 30.25 189.757812 30.804688 189.757812 31.371094 C 189.621094 31.511719 189.480469 31.648438 189.339844 31.789062 C 189.347656 32.316406 189.355469 32.84375 189.367188 33.386719 C 189.386719 34.75 189.28125 35.644531 188.503906 36.808594 C 189.054688 36.949219 189.605469 37.085938 190.175781 37.230469 C 190.050781 38.699219 189.753906 39.324219 188.816406 40.496094 C 187.667969 41.410156 187.667969 41.410156 186.492188 41.542969 C 186.191406 41.5 185.890625 41.457031 185.578125 41.410156 C 185.289062 40.445312 185.289062 40.445312 185.160156 39.320312 C 185.734375 38.640625 185.734375 38.640625 186.414062 38.066406 C 186.550781 37.652344 186.691406 37.238281 186.832031 36.808594 C 186.453125 36.835938 186.074219 36.863281 185.683594 36.890625 C 184.203125 36.804688 183.71875 36.539062 182.652344 35.554688 C 182.789062 34.726562 182.929688 33.898438 183.070312 33.046875 C 182.242188 33.046875 181.414062 33.046875 180.5625 33.046875 C 180.710938 33.355469 180.855469 33.667969 181.007812 33.988281 C 181.417969 35.191406 181.410156 35.644531 180.980469 36.808594 C 180.289062 36.671875 179.601562 36.535156 178.890625 36.390625 C 178.328125 33.738281 178.328125 33.738281 178.996094 32.46875 C 179.726562 31.789062 179.726562 31.789062 180.980469 31.371094 C 181.558594 30.695312 182.121094 29.996094 182.652344 29.28125 Z M 182.652344 29.28125 "/>
<path style=" stroke:none;fill-rule:nonzero;fill:rgb(18.039216%,19.215687%,57.254905%);fill-opacity:1;" d="M 50.574219 46.011719 C 52.78125 46.011719 54.988281 46.011719 57.261719 46.011719 C 57.261719 46.289062 57.261719 46.566406 57.261719 46.851562 C 56.441406 47.566406 55.605469 48.265625 54.753906 48.941406 C 55.292969 50.144531 55.8125 51.035156 56.84375 51.871094 C 57.394531 52.007812 57.945312 52.144531 58.515625 52.289062 C 58.652344 50.632812 58.792969 48.976562 58.933594 47.269531 C 58.65625 47.269531 58.382812 47.269531 58.097656 47.269531 C 58.097656 46.992188 58.097656 46.714844 58.097656 46.429688 C 58.925781 46.292969 59.753906 46.15625 60.605469 46.011719 C 60.605469 46.703125 60.605469 47.394531 60.605469 48.105469 C 61.640625 48.3125 61.640625 48.3125 62.695312 48.523438 C 62.835938 49.132812 62.976562 49.742188 63.113281 50.351562 C 63.191406 50.691406 63.269531 51.03125 63.347656 51.382812 C 63.53125 52.289062 63.53125 52.289062 63.53125 53.125 C 60.496094 53.125 57.460938 53.125 54.335938 53.125 C 54.058594 52.570312 53.785156 52.019531 53.5 51.449219 C 53.363281 51.726562 53.222656 52.003906 53.082031 52.289062 C 53.359375 52.289062 53.632812 52.289062 53.917969 52.289062 C 53.917969 52.5625 53.917969 52.839844 53.917969 53.125 C 52.816406 53.125 51.710938 53.125 50.574219 53.125 C 50.574219 52.847656 50.574219 52.570312 50.574219 52.289062 C 50.851562 52.289062 51.125 52.289062 51.410156 52.289062 C 51.410156 50.492188 51.410156 48.699219 51.410156 46.851562 C 51.132812 46.851562 50.859375 46.851562 50.574219 46.851562 C 50.574219 46.574219 50.574219 46.296875 50.574219 46.011719 Z M 53.082031 46.851562 C 53.21875 47.402344 53.359375 47.953125 53.5 48.523438 C 53.914062 47.972656 54.328125 47.417969 54.753906 46.851562 C 54.203125 46.851562 53.652344 46.851562 53.082031 46.851562 Z M 60.605469 49.359375 C 60.605469 50.324219 60.605469 51.292969 60.605469 52.289062 C 60.882812 52.289062 61.15625 52.289062 61.441406 52.289062 C 61.441406 51.320312 61.441406 50.355469 61.441406 49.359375 C 61.164062 49.359375 60.890625 49.359375 60.605469 49.359375 Z M 60.605469 49.359375 "/>
<path style=" stroke:none;fill-rule:nonzero;fill:rgb(18.039216%,19.215687%,57.254905%);fill-opacity:1;" d="M 139.921875 29.59375 C 140.964844 29.753906 140.964844 29.753906 142.421875 29.4375 C 143.78125 29.28125 143.78125 29.28125 144.902344 29.699219 C 145.871094 30.535156 145.871094 30.535156 146.074219 32.03125 C 146.0625 32.605469 146.035156 33.179688 146 33.75 C 145.992188 34.046875 145.984375 34.339844 145.972656 34.640625 C 145.949219 35.363281 145.910156 36.085938 145.871094 36.808594 C 144.851562 36.652344 144.851562 36.652344 143.78125 36.390625 C 143.644531 36.117188 143.503906 35.839844 143.363281 35.554688 C 143.5 35.28125 143.640625 35.003906 143.78125 34.71875 C 143.796875 33.742188 143.800781 32.765625 143.78125 31.789062 C 142.992188 31.503906 142.992188 31.503906 142.109375 31.371094 C 141.832031 31.648438 141.558594 31.925781 141.273438 32.210938 C 141.410156 32.347656 141.550781 32.484375 141.691406 32.628906 C 141.722656 33.261719 141.726562 33.898438 141.71875 34.535156 C 141.714844 34.882812 141.710938 35.226562 141.707031 35.582031 C 141.703125 35.851562 141.695312 36.117188 141.691406 36.390625 C 141 36.53125 140.3125 36.667969 139.601562 36.808594 C 139.25 35.398438 139.136719 34.4375 139.601562 33.046875 C 138.910156 32.90625 138.222656 32.769531 137.511719 32.628906 C 137.527344 33.164062 137.546875 33.695312 137.5625 34.25 C 137.59375 35.160156 137.59375 35.160156 137.511719 35.972656 C 137.234375 36.25 136.960938 36.527344 136.675781 36.808594 C 136.125 36.808594 135.574219 36.808594 135.003906 36.808594 C 135.089844 36.320312 135.175781 35.828125 135.265625 35.320312 C 135.5 33.503906 135.191406 32.25 134.585938 30.535156 C 136.542969 29.277344 137.722656 29.238281 139.921875 29.59375 Z M 139.921875 29.59375 "/>
<path style=" stroke:none;fill-rule:nonzero;fill:rgb(18.039216%,19.215687%,57.254905%);fill-opacity:1;" d="M 84.429688 30.117188 C 84.898438 32.105469 84.898438 32.105469 84.429688 33.046875 C 83.738281 33.046875 83.050781 33.046875 82.339844 33.046875 C 82.203125 32.492188 82.0625 31.941406 81.921875 31.371094 C 81.507812 31.371094 81.09375 31.371094 80.667969 31.371094 C 80.667969 32.199219 80.667969 33.027344 80.667969 33.882812 C 81.496094 34.296875 82.324219 34.710938 83.175781 35.136719 C 83.175781 34.859375 83.175781 34.585938 83.175781 34.300781 C 83.589844 34.164062 84.003906 34.023438 84.429688 33.882812 C 84.566406 34.296875 84.707031 34.710938 84.847656 35.136719 C 84.296875 35.6875 83.746094 36.242188 83.175781 36.808594 C 83.453125 36.949219 83.726562 37.085938 84.011719 37.230469 C 84.011719 38.472656 84.011719 39.714844 84.011719 40.992188 C 82.539062 41.484375 81.375 41.496094 79.832031 41.410156 C 79.554688 41.136719 79.28125 40.859375 78.996094 40.574219 C 79.101562 39.710938 79.101562 39.710938 79.414062 38.902344 C 79.691406 38.765625 79.964844 38.625 80.25 38.484375 C 80.550781 37.796875 80.832031 37.097656 81.085938 36.390625 C 80.238281 36.351562 80.238281 36.351562 79.414062 36.652344 C 79.136719 36.707031 78.863281 36.757812 78.578125 36.808594 C 78.300781 36.535156 78.027344 36.257812 77.742188 35.972656 C 77.765625 35.128906 77.765625 35.128906 77.925781 34.144531 C 78.140625 32.796875 78.152344 31.84375 77.742188 30.535156 C 80.308594 29.25 81.667969 29.195312 84.429688 30.117188 Z M 84.429688 30.117188 "/>
<path style=" stroke:none;fill-rule:nonzero;fill:rgb(18.039216%,19.215687%,57.254905%);fill-opacity:1;" d="M 207.261719 29.203125 C 207.800781 29.195312 207.800781 29.195312 208.355469 29.183594 C 209.453125 29.285156 210.128906 29.5625 211.074219 30.117188 C 210.796875 30.667969 210.523438 31.222656 210.238281 31.789062 C 210.375 31.929688 210.515625 32.066406 210.65625 32.210938 C 210.6875 32.914062 210.691406 33.621094 210.683594 34.328125 C 210.679688 34.710938 210.675781 35.097656 210.671875 35.492188 C 210.667969 35.789062 210.660156 36.085938 210.65625 36.390625 C 209.964844 36.53125 209.277344 36.667969 208.566406 36.808594 C 208.15625 35.535156 208.15625 34.742188 208.566406 33.464844 C 207.53125 33.050781 207.53125 33.050781 206.476562 32.628906 C 206.476562 32.902344 206.476562 33.179688 206.476562 33.464844 C 206.753906 33.464844 207.027344 33.464844 207.3125 33.464844 C 207.601562 34.429688 207.601562 34.429688 207.730469 35.554688 C 207.261719 36.339844 207.261719 36.339844 206.476562 36.808594 C 205.378906 36.730469 205.378906 36.730469 204.386719 36.390625 C 203.761719 35.144531 203.917969 34.003906 203.96875 32.628906 C 204.105469 32.351562 204.246094 32.074219 204.386719 31.789062 C 204.109375 31.652344 203.835938 31.515625 203.550781 31.371094 C 204.449219 29.386719 205.125 29.21875 207.261719 29.203125 Z M 207.261719 29.203125 "/>
<path style=" stroke:none;fill-rule:nonzero;fill:rgb(18.039216%,19.215687%,57.254905%);fill-opacity:1;" d="M 117.867188 29.28125 C 118.558594 29.417969 119.246094 29.558594 119.957031 29.699219 C 119.957031 30.25 119.957031 30.804688 119.957031 31.371094 C 119.820312 31.511719 119.679688 31.648438 119.539062 31.789062 C 119.953125 31.789062 120.367188 31.789062 120.792969 31.789062 C 120.921875 31.53125 121.050781 31.273438 121.183594 31.007812 C 121.472656 30.429688 121.757812 29.855469 122.046875 29.28125 C 122.738281 29.417969 123.425781 29.558594 124.136719 29.699219 C 124.136719 30.25 124.136719 30.804688 124.136719 31.371094 C 124 31.511719 123.859375 31.648438 123.71875 31.789062 C 123.746094 32.238281 123.769531 32.6875 123.796875 33.148438 C 123.71875 34.71875 123.71875 34.71875 123.117188 35.949219 C 121.753906 37.046875 120.890625 37.085938 119.175781 36.988281 C 118.285156 36.808594 118.285156 36.808594 117.1875 36.078125 C 116.613281 35.136719 116.613281 35.136719 116.691406 34.25 C 116.929688 33.699219 117.183594 33.160156 117.449219 32.628906 C 117.171875 32.488281 116.898438 32.351562 116.613281 32.210938 C 117.398438 30.222656 117.398438 30.222656 117.867188 29.28125 Z M 119.121094 33.882812 C 119.121094 34.296875 119.121094 34.710938 119.121094 35.136719 C 119.949219 35.136719 120.777344 35.136719 121.628906 35.136719 C 121.765625 34.722656 121.90625 34.308594 122.046875 33.882812 C 121.082031 33.882812 120.117188 33.882812 119.121094 33.882812 Z M 119.121094 33.882812 "/>
<path style=" stroke:none;fill-rule:nonzero;fill:rgb(18.039216%,19.215687%,57.254905%);fill-opacity:1;" d="M 70.21875 29.28125 C 70.910156 29.417969 71.597656 29.558594 72.308594 29.699219 C 72.308594 30.25 72.308594 30.804688 72.308594 31.371094 C 72.171875 31.511719 72.03125 31.648438 71.890625 31.789062 C 72.304688 31.789062 72.71875 31.789062 73.144531 31.789062 C 73.273438 31.53125 73.402344 31.273438 73.535156 31.007812 C 73.824219 30.429688 74.109375 29.855469 74.398438 29.28125 C 75.089844 29.417969 75.777344 29.558594 76.488281 29.699219 C 76.488281 30.25 76.488281 30.804688 76.488281 31.371094 C 76.351562 31.511719 76.210938 31.648438 76.070312 31.789062 C 76.097656 32.316406 76.121094 32.84375 76.148438 33.386719 C 76.152344 34.628906 76.105469 35.074219 75.46875 36.183594 C 73.878906 37.113281 72.433594 37.140625 70.636719 36.808594 C 69.539062 36.078125 69.539062 36.078125 68.964844 35.136719 C 69.054688 34.132812 69.351562 33.523438 69.800781 32.628906 C 69.523438 32.488281 69.25 32.351562 68.964844 32.210938 C 69.75 30.222656 69.75 30.222656 70.21875 29.28125 Z M 71.472656 33.882812 C 71.472656 34.296875 71.472656 34.710938 71.472656 35.136719 C 72.300781 35.136719 73.128906 35.136719 73.980469 35.136719 C 74.117188 34.722656 74.257812 34.308594 74.398438 33.882812 C 73.433594 33.882812 72.46875 33.882812 71.472656 33.882812 Z M 71.472656 33.882812 "/>
<path style=" stroke:none;fill-rule:nonzero;fill:rgb(18.039216%,19.215687%,57.254905%);fill-opacity:1;" d="M 129.359375 29.175781 C 129.960938 29.171875 129.960938 29.171875 130.574219 29.171875 C 131.660156 29.28125 131.660156 29.28125 132.914062 30.117188 C 132.636719 30.667969 132.363281 31.222656 132.078125 31.789062 C 132.214844 31.929688 132.355469 32.066406 132.496094 32.210938 C 132.527344 32.984375 132.53125 33.761719 132.523438 34.535156 C 132.519531 34.960938 132.515625 35.382812 132.511719 35.820312 C 132.507812 36.144531 132.5 36.472656 132.496094 36.808594 C 131.476562 36.652344 131.476562 36.652344 130.40625 36.390625 C 129.988281 35.554688 129.988281 35.554688 130.378906 34.25 C 130.527344 33.851562 130.671875 33.453125 130.824219 33.046875 C 130.132812 33.046875 129.445312 33.046875 128.734375 33.046875 C 129.011719 33.320312 129.285156 33.597656 129.570312 33.882812 C 129.675781 34.929688 129.675781 34.929688 129.570312 35.972656 C 129.292969 36.25 129.019531 36.527344 128.734375 36.808594 C 126.832031 36.578125 126.832031 36.578125 126.226562 35.972656 C 126.195312 34.933594 126.226562 33.894531 126.253906 32.855469 C 126.226562 31.867188 126.089844 31.058594 125.808594 30.117188 C 127.210938 29.183594 127.722656 29.167969 129.359375 29.175781 Z M 129.359375 29.175781 "/>
<path style=" stroke:none;fill-rule:nonzero;fill:rgb(18.039216%,19.215687%,57.254905%);fill-opacity:1;" d="M 99.058594 29.097656 C 99.335938 29.089844 99.609375 29.082031 99.894531 29.074219 C 101.148438 29.382812 101.632812 29.929688 102.402344 30.953125 C 102.582031 32.1875 102.582031 32.1875 102.53125 33.515625 C 102.523438 33.957031 102.511719 34.398438 102.5 34.851562 C 102.402344 35.972656 102.402344 35.972656 101.984375 36.808594 C 101.292969 36.671875 100.605469 36.535156 99.894531 36.390625 C 100.03125 34.734375 100.171875 33.078125 100.3125 31.371094 C 99.621094 31.511719 98.933594 31.648438 98.222656 31.789062 C 97.945312 31.652344 97.671875 31.515625 97.386719 31.371094 C 97.386719 31.925781 97.386719 32.476562 97.386719 33.046875 C 97.9375 33.183594 98.488281 33.320312 99.058594 33.464844 C 99.109375 34.667969 99.109375 34.667969 99.058594 35.972656 C 98.78125 36.25 98.507812 36.527344 98.222656 36.808594 C 97.152344 36.707031 97.152344 36.707031 96.132812 36.390625 C 95.570312 35.261719 95.613281 34.332031 95.585938 33.070312 C 95.570312 32.628906 95.554688 32.183594 95.535156 31.726562 C 95.714844 30.535156 95.714844 30.535156 96.453125 29.761719 C 97.414062 29.265625 97.988281 29.101562 99.058594 29.097656 Z M 99.058594 29.097656 "/>
<path style=" stroke:none;fill-rule:nonzero;fill:rgb(18.039216%,19.215687%,57.254905%);fill-opacity:1;" d="M 151.515625 29.125 C 151.835938 29.121094 152.160156 29.117188 152.492188 29.113281 C 153.394531 29.28125 153.394531 29.28125 154.132812 29.71875 C 154.933594 30.992188 154.78125 32.300781 154.726562 33.75 C 154.722656 34.046875 154.714844 34.339844 154.710938 34.640625 C 154.695312 35.363281 154.671875 36.085938 154.648438 36.808594 C 153.957031 36.671875 153.269531 36.535156 152.558594 36.390625 C 152.558594 34.664062 152.75 33.082031 152.976562 31.371094 C 152.648438 31.449219 152.320312 31.527344 151.984375 31.609375 C 150.886719 31.789062 150.886719 31.789062 150.050781 31.371094 C 150.050781 31.925781 150.050781 32.476562 150.050781 33.046875 C 150.601562 33.183594 151.152344 33.320312 151.722656 33.464844 C 151.585938 34.429688 151.445312 35.398438 151.304688 36.390625 C 150.3125 36.652344 150.3125 36.652344 149.214844 36.808594 C 148.054688 35.648438 148.253906 34.898438 148.25 33.28125 C 148.242188 32.796875 148.234375 32.316406 148.226562 31.820312 C 148.378906 30.535156 148.378906 30.535156 148.894531 29.746094 C 149.824219 29.160156 150.417969 29.113281 151.515625 29.125 Z M 151.515625 29.125 "/>
<path style=" stroke:none;fill-rule:nonzero;fill:rgb(18.039216%,19.215687%,57.254905%);fill-opacity:1;" d="M 171.785156 46.011719 C 174.269531 46.011719 176.75 46.011719 179.308594 46.011719 C 179.308594 46.289062 179.308594 46.566406 179.308594 46.851562 C 179.03125 46.851562 178.757812 46.851562 178.472656 46.851562 C 178.472656 48.644531 178.472656 50.4375 178.472656 52.289062 C 178.75 52.289062 179.023438 52.289062 179.308594 52.289062 C 179.308594 52.5625 179.308594 52.839844 179.308594 53.125 C 176.824219 53.125 174.34375 53.125 171.785156 53.125 C 171.785156 52.847656 171.785156 52.570312 171.785156 52.289062 C 172.0625 52.289062 172.335938 52.289062 172.621094 52.289062 C 172.621094 50.492188 172.621094 48.699219 172.621094 46.851562 C 172.34375 46.851562 172.070312 46.851562 171.785156 46.851562 C 171.785156 46.574219 171.785156 46.296875 171.785156 46.011719 Z M 174.292969 46.851562 C 174.292969 47.539062 174.292969 48.230469 174.292969 48.941406 C 174.984375 48.941406 175.671875 48.941406 176.382812 48.941406 C 176.382812 48.25 176.382812 47.5625 176.382812 46.851562 C 175.691406 46.851562 175.003906 46.851562 174.292969 46.851562 Z M 174.292969 50.195312 C 174.292969 50.886719 174.292969 51.578125 174.292969 52.289062 C 175.105469 52.535156 175.105469 52.535156 175.964844 52.707031 C 176.507812 52.261719 176.507812 52.261719 176.410156 51.214844 C 176.398438 50.878906 176.390625 50.542969 176.382812 50.195312 C 175.691406 50.195312 175.003906 50.195312 174.292969 50.195312 Z M 174.292969 50.195312 "/>
<path style=" stroke:none;fill-rule:nonzero;fill:rgb(18.039216%,19.215687%,57.254905%);fill-opacity:1;" d="M 109.507812 29.28125 C 109.921875 29.558594 110.335938 29.832031 110.761719 30.117188 C 110.839844 31.425781 110.839844 31.425781 110.761719 32.628906 C 110.347656 32.765625 109.933594 32.902344 109.507812 33.046875 C 109.230469 32.90625 108.957031 32.769531 108.671875 32.628906 C 108.671875 32.214844 108.671875 31.800781 108.671875 31.371094 C 107.429688 31.164062 107.429688 31.164062 106.164062 30.953125 C 106.578125 31.574219 106.578125 31.574219 107 32.210938 C 106.84375 33.542969 106.84375 33.542969 106.582031 34.71875 C 106.996094 34.441406 107.410156 34.167969 107.835938 33.882812 C 108.90625 33.777344 108.90625 33.777344 109.925781 33.882812 C 110.761719 34.71875 110.761719 34.71875 110.8125 35.816406 C 110.796875 36.144531 110.78125 36.472656 110.761719 36.808594 C 110.441406 36.742188 110.125 36.671875 109.796875 36.601562 C 108.1875 36.300781 106.910156 36.46875 105.328125 36.808594 C 104.675781 36.128906 104.675781 36.128906 104.074219 35.136719 C 104.230469 33.882812 104.230469 33.882812 104.492188 32.628906 C 104.398438 32.335938 104.300781 32.039062 104.203125 31.738281 C 104.074219 30.953125 104.074219 30.953125 104.648438 30.011719 C 106.207031 28.972656 107.679688 28.992188 109.507812 29.28125 Z M 109.507812 29.28125 "/>
<path style=" stroke:none;fill-rule:nonzero;fill:rgb(18.039216%,19.215687%,57.254905%);fill-opacity:1;" d="M 113.6875 29.28125 C 114.722656 29.695312 114.722656 29.695312 115.777344 30.117188 C 115.640625 30.53125 115.5 30.945312 115.359375 31.371094 C 115.3125 32.039062 115.285156 32.707031 115.269531 33.371094 C 115.257812 33.757812 115.246094 34.144531 115.234375 34.542969 C 115.214844 35.359375 115.195312 36.171875 115.179688 36.984375 C 115.160156 37.566406 115.160156 37.566406 115.140625 38.15625 C 115.132812 38.511719 115.125 38.863281 115.117188 39.226562 C 114.90625 40.347656 114.582031 40.726562 113.6875 41.410156 C 112.519531 41.628906 111.546875 41.507812 110.34375 41.410156 C 109.507812 40.574219 109.507812 40.574219 109.457031 39.058594 C 109.472656 38.59375 109.488281 38.128906 109.507812 37.648438 C 110.199219 37.507812 110.886719 37.371094 111.597656 37.230469 C 111.460938 38.058594 111.320312 38.886719 111.179688 39.738281 C 111.871094 39.738281 112.558594 39.738281 113.269531 39.738281 C 113.269531 37.253906 113.269531 34.769531 113.269531 32.210938 C 112.992188 32.210938 112.71875 32.210938 112.433594 32.210938 C 112.746094 30.222656 112.746094 30.222656 113.6875 29.28125 Z M 113.6875 29.28125 "/>
<path style=" stroke:none;fill-rule:nonzero;fill:rgb(18.039216%,19.215687%,57.254905%);fill-opacity:1;" d="M 166.351562 29.28125 C 167.265625 29.882812 167.265625 29.882812 167.605469 30.953125 C 167.445312 33.335938 166.777344 35.074219 165.097656 36.808594 C 164.105469 36.730469 164.105469 36.730469 163.007812 36.390625 C 162.460938 35.320312 162.460938 35.320312 162.171875 34.300781 C 162.378906 34.164062 162.585938 34.027344 162.796875 33.886719 C 163.199219 33.613281 163.199219 33.613281 163.609375 33.332031 C 164.007812 33.0625 164.007812 33.0625 164.417969 32.789062 C 165.21875 32.207031 165.21875 32.207031 165.515625 30.953125 C 165.101562 30.953125 164.6875 30.953125 164.261719 30.953125 C 164.125 31.644531 163.984375 32.335938 163.84375 33.046875 C 162.851562 33.097656 162.851562 33.097656 161.753906 33.046875 C 161.476562 32.769531 161.203125 32.492188 160.917969 32.210938 C 160.996094 31.164062 160.996094 31.164062 161.335938 30.117188 C 163.015625 28.996094 164.378906 29 166.351562 29.28125 Z M 166.351562 29.28125 "/>
<path style=" stroke:none;fill-rule:nonzero;fill:rgb(18.039216%,19.215687%,57.254905%);fill-opacity:1;" d="M 67.710938 48.027344 C 68.5 48.015625 68.5 48.015625 69.304688 48.007812 C 70.636719 48.105469 70.636719 48.105469 71.472656 48.941406 C 71.714844 50.332031 71.78125 51.714844 71.890625 53.125 C 69.269531 53.125 66.648438 53.125 63.949219 53.125 C 63.949219 51.605469 63.949219 50.085938 63.949219 48.523438 C 65.191406 47.902344 66.332031 48.035156 67.710938 48.027344 Z M 66.457031 49.359375 C 65.890625 49.832031 65.890625 49.832031 66.011719 51.058594 C 66.023438 51.464844 66.03125 51.871094 66.039062 52.289062 C 66.453125 52.289062 66.867188 52.289062 67.292969 52.289062 C 67.292969 51.320312 67.292969 50.355469 67.292969 49.359375 C 67.015625 49.359375 66.742188 49.359375 66.457031 49.359375 Z M 68.964844 49.359375 C 68.964844 50.324219 68.964844 51.292969 68.964844 52.289062 C 69.242188 52.289062 69.515625 52.289062 69.800781 52.289062 C 69.800781 51.320312 69.800781 50.355469 69.800781 49.359375 C 69.523438 49.359375 69.25 49.359375 68.964844 49.359375 Z M 68.964844 49.359375 "/>
<path style=" stroke:none;fill-rule:nonzero;fill:rgb(18.039216%,19.215687%,57.254905%);fill-opacity:1;" d="M 159.246094 24.261719 C 159.660156 24.261719 160.074219 24.261719 160.5 24.261719 C 160.199219 26.1875 159.535156 27.890625 158.828125 29.699219 C 159.105469 29.835938 159.378906 29.976562 159.664062 30.117188 C 159.59375 30.332031 159.527344 30.550781 159.453125 30.769531 C 159.066406 32.660156 159.074219 34.550781 159.664062 36.390625 C 158.972656 36.550781 158.273438 36.691406 157.574219 36.808594 C 156.871094 36.105469 157.0625 35.210938 157.023438 34.246094 C 157.007812 33.8125 156.988281 33.382812 156.972656 32.933594 C 156.953125 32.480469 156.9375 32.023438 156.921875 31.554688 C 156.902344 31.097656 156.886719 30.640625 156.867188 30.171875 C 156.820312 29.039062 156.78125 27.90625 156.738281 26.769531 C 157.152344 26.632812 157.566406 26.496094 157.992188 26.351562 C 158.199219 26 158.40625 25.644531 158.617188 25.28125 C 158.824219 24.945312 159.03125 24.609375 159.246094 24.261719 Z M 159.246094 24.261719 "/>
<path style=" stroke:none;fill-rule:nonzero;fill:rgb(18.039216%,19.215687%,57.254905%);fill-opacity:1;" d="M 90.28125 46.011719 C 90.28125 47.269531 90.28125 48.523438 90.28125 49.777344 C 90.417969 49.914062 90.558594 50.054688 90.699219 50.195312 C 90.777344 51.214844 90.777344 51.214844 90.699219 52.289062 C 89.863281 53.125 89.863281 53.125 88.957031 53.207031 C 88.621094 53.195312 88.28125 53.1875 87.929688 53.175781 C 87.589844 53.167969 87.246094 53.160156 86.894531 53.152344 C 86.632812 53.144531 86.371094 53.132812 86.101562 53.125 C 85.964844 52.433594 85.824219 51.742188 85.683594 51.03125 C 86.097656 50.894531 86.511719 50.757812 86.9375 50.613281 C 87.351562 51.234375 87.351562 51.234375 87.773438 51.871094 C 88.1875 52.007812 88.601562 52.144531 89.027344 52.289062 C 88.714844 50.917969 88.714844 50.917969 87.355469 50.222656 C 86.101562 49.359375 86.101562 49.359375 85.65625 48.523438 C 85.683594 47.6875 85.683594 47.6875 86.074219 46.746094 C 87.417969 45.605469 88.554688 45.898438 90.28125 46.011719 Z M 87.773438 46.851562 C 87.773438 47.402344 87.773438 47.953125 87.773438 48.523438 C 88.601562 48.730469 88.601562 48.730469 89.445312 48.941406 C 89.332031 48.109375 89.332031 48.109375 89.027344 47.269531 C 88.613281 47.128906 88.199219 46.992188 87.773438 46.851562 Z M 87.773438 46.851562 "/>
<path style=" stroke:none;fill-rule:nonzero;fill:rgb(18.039216%,19.215687%,57.254905%);fill-opacity:1;" d="M 155.902344 46.011719 C 155.902344 46.703125 155.902344 47.394531 155.902344 48.105469 C 156.238281 48.164062 156.574219 48.226562 156.921875 48.289062 C 157.992188 48.523438 157.992188 48.523438 158.410156 48.941406 C 158.601562 50.332031 158.703125 51.726562 158.828125 53.125 C 157.035156 53.125 155.242188 53.125 153.394531 53.125 C 153.53125 52.847656 153.671875 52.570312 153.8125 52.289062 C 153.90625 51.433594 153.984375 50.582031 154.046875 49.726562 C 154.082031 49.265625 154.117188 48.808594 154.152344 48.335938 C 154.179688 47.984375 154.203125 47.632812 154.230469 47.269531 C 153.953125 47.269531 153.679688 47.269531 153.394531 47.269531 C 153.394531 46.992188 153.394531 46.714844 153.394531 46.429688 C 154.230469 46.011719 154.230469 46.011719 155.902344 46.011719 Z M 155.902344 49.359375 C 155.902344 50.324219 155.902344 51.292969 155.902344 52.289062 C 156.179688 52.289062 156.453125 52.289062 156.738281 52.289062 C 156.738281 51.320312 156.738281 50.355469 156.738281 49.359375 C 156.460938 49.359375 156.1875 49.359375 155.902344 49.359375 Z M 155.902344 49.359375 "/>
<path style=" stroke:none;fill-rule:nonzero;fill:rgb(18.039216%,19.215687%,57.254905%);fill-opacity:1;" d="M 166.769531 48.105469 C 167.605469 48.550781 167.605469 48.550781 168.023438 49.359375 C 167.882812 52.007812 167.882812 52.007812 166.769531 53.125 C 166.21875 53.125 165.667969 53.125 165.097656 53.125 C 165.234375 53.8125 165.375 54.503906 165.515625 55.214844 C 164.550781 55.214844 163.585938 55.214844 162.589844 55.214844 C 162.589844 54.941406 162.589844 54.664062 162.589844 54.378906 C 162.867188 54.378906 163.140625 54.378906 163.425781 54.378906 C 163.425781 52.722656 163.425781 51.066406 163.425781 49.359375 C 163.148438 49.359375 162.875 49.359375 162.589844 49.359375 C 162.589844 49.082031 162.589844 48.808594 162.589844 48.523438 C 164.074219 48.027344 165.210938 47.992188 166.769531 48.105469 Z M 165.097656 49.359375 C 165.097656 50.324219 165.097656 51.292969 165.097656 52.289062 C 165.511719 52.148438 165.925781 52.011719 166.351562 51.871094 C 166.351562 51.179688 166.351562 50.488281 166.351562 49.777344 C 165.9375 49.640625 165.523438 49.5 165.097656 49.359375 Z M 165.097656 49.359375 "/>
<path style=" stroke:none;fill-rule:nonzero;fill:rgb(18.039216%,19.215687%,57.254905%);fill-opacity:1;" d="M 118.703125 46.011719 C 120.496094 46.011719 122.289062 46.011719 124.136719 46.011719 C 124.136719 46.703125 124.136719 47.394531 124.136719 48.105469 C 123.859375 48.105469 123.585938 48.105469 123.300781 48.105469 C 123.300781 49.070312 123.300781 50.039062 123.300781 51.03125 C 123.023438 51.03125 122.75 51.03125 122.464844 51.03125 C 122.464844 50.757812 122.464844 50.480469 122.464844 50.195312 C 122.050781 50.195312 121.636719 50.195312 121.210938 50.195312 C 121.210938 50.886719 121.210938 51.578125 121.210938 52.289062 C 121.488281 52.289062 121.761719 52.289062 122.046875 52.289062 C 122.046875 52.5625 122.046875 52.839844 122.046875 53.125 C 120.945312 53.125 119.839844 53.125 118.703125 53.125 C 118.703125 52.847656 118.703125 52.570312 118.703125 52.289062 C 118.980469 52.289062 119.253906 52.289062 119.539062 52.289062 C 119.539062 50.492188 119.539062 48.699219 119.539062 46.851562 C 119.261719 46.851562 118.988281 46.851562 118.703125 46.851562 C 118.703125 46.574219 118.703125 46.296875 118.703125 46.011719 Z M 121.210938 47.269531 C 121.210938 47.820312 121.210938 48.371094 121.210938 48.941406 C 121.625 48.941406 122.039062 48.941406 122.464844 48.941406 C 122.464844 48.664062 122.464844 48.390625 122.464844 48.105469 C 122.742188 47.964844 123.015625 47.828125 123.300781 47.6875 C 122.609375 47.546875 121.921875 47.410156 121.210938 47.269531 Z M 121.210938 47.269531 "/>
<path style=" stroke:none;fill-rule:nonzero;fill:rgb(18.039216%,19.215687%,57.254905%);fill-opacity:1;" d="M 193.9375 48.105469 C 194.773438 48.785156 194.773438 48.785156 195.191406 49.777344 C 195.097656 51.3125 195.035156 52.023438 193.9375 53.125 C 193.386719 53.125 192.835938 53.125 192.265625 53.125 C 192.402344 53.8125 192.542969 54.503906 192.683594 55.214844 C 191.71875 55.214844 190.753906 55.214844 189.757812 55.214844 C 189.757812 54.941406 189.757812 54.664062 189.757812 54.378906 C 190.035156 54.378906 190.308594 54.378906 190.59375 54.378906 C 190.59375 52.722656 190.59375 51.066406 190.59375 49.359375 C 190.316406 49.359375 190.042969 49.359375 189.757812 49.359375 C 189.757812 49.082031 189.757812 48.808594 189.757812 48.523438 C 191.253906 48.023438 192.367188 47.964844 193.9375 48.105469 Z M 192.265625 49.359375 C 192.265625 50.324219 192.265625 51.292969 192.265625 52.289062 C 192.679688 52.148438 193.09375 52.011719 193.519531 51.871094 C 193.382812 51.042969 193.242188 50.210938 193.101562 49.359375 C 192.824219 49.359375 192.550781 49.359375 192.265625 49.359375 Z M 192.265625 49.359375 "/>
<path style=" stroke:none;fill-rule:nonzero;fill:rgb(18.039216%,19.215687%,57.254905%);fill-opacity:1;" d="M 146.289062 46.011719 C 146.839844 46.011719 147.390625 46.011719 147.960938 46.011719 C 147.960938 47.945312 147.960938 49.878906 147.960938 51.871094 C 148.238281 51.871094 148.511719 51.871094 148.796875 51.871094 C 148.796875 52.144531 148.796875 52.421875 148.796875 52.707031 C 147.820312 53.195312 147.167969 53.207031 146.078125 53.230469 C 145.75 53.238281 145.417969 53.25 145.074219 53.261719 C 144.785156 53.214844 144.496094 53.171875 144.199219 53.125 C 143.363281 51.871094 143.363281 51.871094 143.441406 50.378906 C 143.78125 48.941406 143.78125 48.941406 145.035156 48.105469 C 145.449219 48.105469 145.863281 48.105469 146.289062 48.105469 C 146.171875 47.703125 146.171875 47.703125 146.054688 47.292969 C 145.992188 47.007812 145.933594 46.726562 145.871094 46.429688 C 146.007812 46.292969 146.148438 46.15625 146.289062 46.011719 Z M 145.453125 48.941406 C 144.910156 49.386719 144.910156 49.386719 145.007812 50.429688 C 145.019531 50.769531 145.027344 51.105469 145.035156 51.449219 C 145.449219 51.589844 145.863281 51.726562 146.289062 51.871094 C 146.289062 50.902344 146.289062 49.9375 146.289062 48.941406 C 146.011719 48.941406 145.738281 48.941406 145.453125 48.941406 Z M 145.453125 48.941406 "/>
<path style=" stroke:none;fill-rule:nonzero;fill:rgb(18.039216%,19.215687%,57.254905%);fill-opacity:1;" d="M 132.078125 37.648438 C 132.078125 38.75 132.078125 39.855469 132.078125 40.992188 C 131.527344 41.132812 130.976562 41.269531 130.40625 41.410156 C 130.015625 40.152344 129.96875 39.792969 130.40625 38.484375 C 129.992188 38.691406 129.992188 38.691406 129.570312 38.902344 C 129.296875 39.960938 129.296875 39.960938 129.152344 40.992188 C 128.367188 41.253906 128.367188 41.253906 127.480469 41.410156 C 126.644531 40.574219 126.644531 40.574219 126.59375 39.058594 C 126.609375 38.59375 126.625 38.128906 126.644531 37.648438 C 128.582031 36.675781 130.121094 36.667969 132.078125 37.648438 Z M 132.078125 37.648438 "/>
<path style=" stroke:none;fill-rule:nonzero;fill:rgb(18.039216%,19.215687%,57.254905%);fill-opacity:1;" d="M 79.832031 25.097656 C 80.738281 25.308594 81.503906 25.515625 82.339844 25.933594 C 82.476562 25.660156 82.617188 25.382812 82.757812 25.097656 C 83.308594 25.097656 83.859375 25.097656 84.429688 25.097656 C 84.46875 27.671875 84.46875 27.671875 84.429688 28.445312 C 84.011719 28.863281 84.011719 28.863281 82.875 28.902344 C 82.183594 28.894531 82.183594 28.894531 81.476562 28.890625 C 80.785156 28.882812 80.785156 28.882812 80.078125 28.878906 C 79.722656 28.871094 79.363281 28.867188 78.996094 28.863281 C 78.75 27.878906 78.75 27.878906 78.578125 26.769531 C 79.179688 25.804688 79.179688 25.804688 79.832031 25.097656 Z M 79.832031 25.097656 "/>
<path style=" stroke:none;fill-rule:nonzero;fill:rgb(18.039216%,19.215687%,57.254905%);fill-opacity:1;" d="M 140.019531 48 C 140.3125 47.988281 140.605469 47.976562 140.90625 47.96875 C 141.167969 48.011719 141.425781 48.058594 141.691406 48.105469 C 142.824219 49.804688 142.769531 51.097656 142.945312 53.125 C 141.152344 53.125 139.359375 53.125 137.511719 53.125 C 137.511719 52.847656 137.511719 52.570312 137.511719 52.289062 C 137.789062 52.289062 138.0625 52.289062 138.347656 52.289062 C 138.347656 51.320312 138.347656 50.355469 138.347656 49.359375 C 138.070312 49.359375 137.796875 49.359375 137.511719 49.359375 C 137.511719 49.082031 137.511719 48.808594 137.511719 48.523438 C 138.4375 48.058594 138.992188 48.023438 140.019531 48 Z M 140.019531 49.359375 C 139.453125 49.832031 139.453125 49.832031 139.574219 51.058594 C 139.585938 51.464844 139.59375 51.871094 139.601562 52.289062 C 140.015625 52.289062 140.429688 52.289062 140.855469 52.289062 C 140.855469 51.320312 140.855469 50.355469 140.855469 49.359375 C 140.578125 49.359375 140.304688 49.359375 140.019531 49.359375 Z M 140.019531 49.359375 "/>
<path style=" stroke:none;fill-rule:nonzero;fill:rgb(18.039216%,19.215687%,57.254905%);fill-opacity:1;" d="M 205.222656 48.050781 C 206.476562 48.105469 206.476562 48.105469 206.894531 48.523438 C 206.953125 49.640625 206.914062 50.75 206.894531 51.871094 C 207.171875 51.871094 207.445312 51.871094 207.730469 51.871094 C 207.59375 52.285156 207.453125 52.699219 207.3125 53.125 C 205.933594 53.125 204.554688 53.125 203.132812 53.125 C 203.132812 48.140625 203.132812 48.140625 205.222656 48.050781 Z M 204.804688 48.941406 C 205.222656 49.777344 205.222656 49.777344 205.222656 49.777344 Z M 204.804688 51.03125 C 204.667969 51.308594 204.527344 51.585938 204.386719 51.871094 C 204.664062 51.871094 204.9375 51.871094 205.222656 51.871094 C 205.085938 51.59375 204.945312 51.316406 204.804688 51.03125 Z M 204.804688 51.03125 "/>
<path style=" stroke:none;fill-rule:nonzero;fill:rgb(18.039216%,19.215687%,57.254905%);fill-opacity:1;" d="M 165.515625 36.808594 C 165.929688 36.949219 166.34375 37.085938 166.769531 37.230469 C 166.769531 37.644531 166.769531 38.058594 166.769531 38.484375 C 167.046875 38.484375 167.320312 38.484375 167.605469 38.484375 C 167.605469 39.3125 167.605469 40.140625 167.605469 40.992188 C 165.050781 41.800781 163.222656 40.800781 160.917969 39.738281 C 160.917969 39.324219 160.917969 38.910156 160.917969 38.484375 C 161.445312 38.519531 161.96875 38.550781 162.511719 38.589844 C 163.421875 38.617188 163.421875 38.617188 164.261719 38.484375 C 165.121094 37.714844 165.121094 37.714844 165.515625 36.808594 Z M 165.515625 36.808594 "/>
<path style=" stroke:none;fill-rule:nonzero;fill:rgb(18.039216%,19.215687%,57.254905%);fill-opacity:1;" d="M 91.535156 29.28125 C 93.519531 29.648438 93.519531 29.648438 94.460938 30.117188 C 94.324219 30.53125 94.183594 30.945312 94.042969 31.371094 C 93.945312 33.917969 93.945312 33.917969 94.460938 36.390625 C 93.769531 36.53125 93.082031 36.667969 92.371094 36.808594 C 91.378906 35.261719 91.449219 33.910156 91.484375 32.105469 C 91.492188 31.574219 91.496094 31.046875 91.503906 30.503906 C 91.515625 30.101562 91.523438 29.695312 91.535156 29.28125 Z M 91.535156 29.28125 "/>
<path style=" stroke:none;fill-rule:nonzero;fill:rgb(18.039216%,19.215687%,57.254905%);fill-opacity:1;" d="M 96.132812 48.523438 C 96.773438 49.96875 97.074219 50.703125 96.578125 52.234375 C 95.714844 53.125 95.714844 53.125 94.226562 53.308594 C 92.789062 53.125 92.789062 53.125 91.953125 52.289062 C 91.726562 49.789062 91.726562 49.789062 92.398438 48.523438 C 93.679688 47.859375 94.761719 48.238281 96.132812 48.523438 Z M 93.625 48.941406 C 93.625 49.90625 93.625 50.875 93.625 51.871094 C 94.039062 52.007812 94.453125 52.144531 94.878906 52.289062 C 94.878906 51.320312 94.878906 50.355469 94.878906 49.359375 C 94.464844 49.222656 94.050781 49.082031 93.625 48.941406 Z M 93.625 48.941406 "/>
<path style=" stroke:none;fill-rule:nonzero;fill:rgb(18.039216%,19.215687%,57.254905%);fill-opacity:1;" d="M 110.34375 48.105469 C 110.621094 48.378906 110.894531 48.65625 111.179688 48.941406 C 111.023438 49.828125 111.023438 49.828125 110.761719 50.613281 C 110.070312 50.753906 109.382812 50.890625 108.671875 51.03125 C 109.222656 51.03125 109.773438 51.03125 110.34375 51.03125 C 110.621094 51.03125 110.894531 51.03125 111.179688 51.03125 C 110.8125 52.652344 110.8125 52.652344 110.34375 53.125 C 109.140625 53.28125 109.140625 53.28125 107.835938 53.125 C 107 52.234375 107 52.234375 106.582031 51.03125 C 106.871094 49.671875 106.871094 49.671875 107.417969 48.523438 C 108.46875 47.996094 109.179688 48.015625 110.34375 48.105469 Z M 110.34375 48.105469 "/>
<path style=" stroke:none;fill-rule:nonzero;fill:rgb(18.039216%,19.215687%,57.254905%);fill-opacity:1;" d="M 136.257812 48.105469 C 136.535156 48.378906 136.808594 48.65625 137.09375 48.941406 C 136.9375 49.828125 136.9375 49.828125 136.675781 50.613281 C 135.847656 50.613281 135.019531 50.613281 134.167969 50.613281 C 134.304688 50.890625 134.445312 51.167969 134.585938 51.449219 C 135.414062 51.3125 136.242188 51.175781 137.09375 51.03125 C 136.816406 51.722656 136.542969 52.414062 136.257812 53.125 C 135.082031 53.230469 135.082031 53.230469 133.75 53.125 C 132.941406 52.445312 132.941406 52.445312 132.496094 51.449219 C 132.546875 50.144531 132.546875 50.144531 132.914062 48.941406 C 134.261719 48.042969 134.699219 47.945312 136.257812 48.105469 Z M 136.257812 48.105469 "/>
<path style=" stroke:none;fill-rule:nonzero;fill:rgb(18.039216%,19.215687%,57.254905%);fill-opacity:1;" d="M 76.070312 48.105469 C 76.347656 48.378906 76.621094 48.65625 76.90625 48.941406 C 76.75 49.828125 76.75 49.828125 76.488281 50.613281 C 75.796875 50.753906 75.109375 50.890625 74.398438 51.03125 C 74.398438 51.308594 74.398438 51.585938 74.398438 51.871094 C 75.226562 51.59375 76.054688 51.316406 76.90625 51.03125 C 76.628906 51.722656 76.355469 52.414062 76.070312 53.125 C 74.894531 53.230469 74.894531 53.230469 73.5625 53.125 C 72.753906 52.445312 72.753906 52.445312 72.308594 51.449219 C 72.359375 50.144531 72.359375 50.144531 72.726562 48.941406 C 74.074219 48.042969 74.511719 47.945312 76.070312 48.105469 Z M 76.070312 48.105469 "/>
<path style=" stroke:none;fill-rule:nonzero;fill:rgb(18.039216%,19.215687%,57.254905%);fill-opacity:1;" d="M 118.703125 25.097656 C 120.457031 25.378906 121.796875 26.292969 123.300781 27.191406 C 123.164062 27.742188 123.023438 28.292969 122.882812 28.863281 C 121.226562 28.863281 119.574219 28.863281 117.867188 28.863281 C 117.449219 26.769531 117.449219 26.769531 118.050781 25.804688 C 118.265625 25.570312 118.480469 25.339844 118.703125 25.097656 Z M 118.703125 25.097656 "/>
<path style=" stroke:none;fill-rule:nonzero;fill:rgb(18.039216%,19.215687%,57.254905%);fill-opacity:1;" d="M 183.488281 48.105469 C 184.246094 48.574219 184.246094 48.574219 184.742188 49.359375 C 184.90625 50.675781 184.964844 51.5 184.273438 52.652344 C 183.121094 53.34375 182.296875 53.289062 180.980469 53.125 C 180.171875 52.679688 180.171875 52.679688 179.726562 51.871094 C 179.777344 50.378906 179.777344 50.378906 180.144531 48.941406 C 181.496094 48.039062 181.921875 47.910156 183.488281 48.105469 Z M 181.816406 48.941406 C 181.679688 49.078125 181.539062 49.21875 181.398438 49.359375 C 181.519531 50.339844 181.65625 51.316406 181.816406 52.289062 C 182.230469 52.289062 182.644531 52.289062 183.070312 52.289062 C 183.15625 50.554688 183.15625 50.554688 182.652344 48.941406 C 182.375 48.941406 182.101562 48.941406 181.816406 48.941406 Z M 181.816406 48.941406 "/>
<path style=" stroke:none;fill-rule:nonzero;fill:rgb(18.039216%,19.215687%,57.254905%);fill-opacity:1;" d="M 170.53125 29.28125 C 171.773438 29.488281 171.773438 29.488281 173.039062 29.699219 C 172.902344 30.25 172.761719 30.804688 172.621094 31.371094 C 172.34375 31.371094 172.070312 31.371094 171.785156 31.371094 C 171.792969 31.695312 171.804688 32.015625 171.816406 32.351562 C 171.824219 32.980469 171.824219 32.980469 171.835938 33.621094 C 171.847656 34.039062 171.855469 34.457031 171.867188 34.886719 C 171.785156 35.972656 171.785156 35.972656 170.949219 36.808594 C 170.398438 36.808594 169.847656 36.808594 169.277344 36.808594 C 169.3125 36.488281 169.347656 36.164062 169.382812 35.832031 C 169.449219 35.203125 169.449219 35.203125 169.511719 34.5625 C 169.554688 34.144531 169.601562 33.726562 169.644531 33.296875 C 169.785156 32.214844 169.785156 32.214844 169.277344 31.371094 C 169.878906 30.273438 169.878906 30.273438 170.53125 29.28125 Z M 170.53125 29.28125 "/>
<path style=" stroke:none;fill-rule:nonzero;fill:rgb(18.039216%,19.215687%,57.254905%);fill-opacity:1;" d="M 88.191406 29.28125 C 89.433594 29.488281 89.433594 29.488281 90.699219 29.699219 C 90.566406 29.933594 90.433594 30.164062 90.292969 30.402344 C 89.683594 31.78125 89.679688 33.085938 89.589844 34.578125 C 89.445312 35.554688 89.445312 35.554688 88.609375 36.808594 C 88.058594 36.808594 87.507812 36.808594 86.9375 36.808594 C 86.996094 36.515625 87.058594 36.222656 87.121094 35.921875 C 87.363281 34.6875 87.570312 33.449219 87.773438 32.210938 C 87.496094 32.210938 87.222656 32.210938 86.9375 32.210938 C 87.195312 30.96875 87.460938 30.375 88.191406 29.28125 Z M 88.191406 29.28125 "/>
<path style=" stroke:none;fill-rule:nonzero;fill:rgb(18.039216%,19.215687%,57.254905%);fill-opacity:1;" d="M 191.847656 29.28125 C 192.753906 29.492188 193.519531 29.699219 194.355469 30.117188 C 194.304688 30.5625 194.304688 30.5625 194.25 31.019531 C 194.207031 31.402344 194.164062 31.785156 194.121094 32.183594 C 194.078125 32.566406 194.03125 32.949219 193.988281 33.34375 C 193.972656 33.660156 193.953125 33.976562 193.9375 34.300781 C 194.074219 34.4375 194.214844 34.578125 194.355469 34.71875 C 194.371094 35.414062 194.375 36.113281 194.355469 36.808594 C 192.316406 36.445312 192.316406 36.445312 191.847656 35.972656 C 191.816406 34.847656 191.808594 33.730469 191.820312 32.601562 C 191.824219 32.285156 191.824219 31.964844 191.828125 31.640625 C 191.832031 30.851562 191.839844 30.066406 191.847656 29.28125 Z M 191.847656 29.28125 "/>
<path style=" stroke:none;fill-rule:nonzero;fill:rgb(18.039216%,19.215687%,57.254905%);fill-opacity:1;" d="M 187.695312 48.078125 C 188.300781 48.089844 188.300781 48.089844 188.921875 48.105469 C 188.914062 48.476562 188.90625 48.847656 188.894531 49.230469 C 188.878906 50.585938 188.878906 50.585938 189.15625 51.789062 C 189.246094 52.242188 189.246094 52.242188 189.339844 52.707031 C 188.921875 53.125 188.921875 53.125 188.148438 53.164062 C 187.292969 53.152344 186.433594 53.136719 185.578125 53.125 C 185.578125 48.121094 185.578125 48.121094 187.695312 48.078125 Z M 186.832031 48.941406 C 186.96875 49.21875 187.109375 49.492188 187.25 49.777344 C 187.527344 49.640625 187.800781 49.5 188.085938 49.359375 C 187.671875 49.222656 187.257812 49.082031 186.832031 48.941406 Z M 186.832031 51.449219 C 186.832031 51.726562 186.832031 52.003906 186.832031 52.289062 C 187.109375 52.289062 187.382812 52.289062 187.667969 52.289062 C 187.667969 52.011719 187.667969 51.734375 187.667969 51.449219 C 187.390625 51.449219 187.117188 51.449219 186.832031 51.449219 Z M 186.832031 51.449219 "/>
<path style=" stroke:none;fill-rule:nonzero;fill:rgb(18.039216%,19.215687%,57.254905%);fill-opacity:1;" d="M 151.332031 48.078125 C 151.9375 48.089844 151.9375 48.089844 152.558594 48.105469 C 152.550781 48.476562 152.542969 48.847656 152.53125 49.230469 C 152.554688 50.457031 152.695312 51.515625 152.976562 52.707031 C 151.742188 53.324219 150.578125 53.148438 149.214844 53.125 C 149.214844 48.121094 149.214844 48.121094 151.332031 48.078125 Z M 150.46875 48.941406 C 150.605469 49.21875 150.746094 49.492188 150.886719 49.777344 C 151.164062 49.640625 151.4375 49.5 151.722656 49.359375 C 151.308594 49.222656 150.894531 49.082031 150.46875 48.941406 Z M 150.46875 51.449219 C 150.46875 51.726562 150.46875 52.003906 150.46875 52.289062 C 150.746094 52.289062 151.019531 52.289062 151.304688 52.289062 C 151.304688 52.011719 151.304688 51.734375 151.304688 51.449219 C 151.027344 51.449219 150.753906 51.449219 150.46875 51.449219 Z M 150.46875 51.449219 "/>
<path style=" stroke:none;fill-rule:nonzero;fill:rgb(18.039216%,19.215687%,57.254905%);fill-opacity:1;" d="M 97.386719 48.105469 C 98.214844 48.105469 99.042969 48.105469 99.894531 48.105469 C 99.894531 48.792969 99.894531 49.484375 99.894531 50.195312 C 100.171875 50.195312 100.445312 50.195312 100.730469 50.195312 C 100.613281 49.792969 100.613281 49.792969 100.496094 49.386719 C 100.433594 49.101562 100.375 48.816406 100.3125 48.523438 C 100.730469 48.105469 100.730469 48.105469 101.800781 48.078125 C 102.304688 48.089844 102.304688 48.089844 102.820312 48.105469 C 102.820312 48.378906 102.820312 48.65625 102.820312 48.941406 C 102.542969 48.941406 102.269531 48.941406 101.984375 48.941406 C 101.933594 49.242188 101.882812 49.546875 101.828125 49.855469 C 101.570312 51.015625 101.195312 52.035156 100.730469 53.125 C 100.316406 53.125 99.902344 53.125 99.476562 53.125 C 99.125 52.445312 98.777344 51.765625 98.429688 51.085938 C 98.238281 50.707031 98.042969 50.328125 97.84375 49.9375 C 97.386719 48.941406 97.386719 48.941406 97.386719 48.105469 Z M 97.386719 48.105469 "/>
<path style=" stroke:none;fill-rule:nonzero;fill:rgb(18.039216%,19.215687%,57.254905%);fill-opacity:1;" d="M 208.566406 46.011719 C 209.117188 46.011719 209.667969 46.011719 210.238281 46.011719 C 210.238281 48.082031 210.238281 50.152344 210.238281 52.289062 C 210.515625 52.289062 210.789062 52.289062 211.074219 52.289062 C 211.074219 52.5625 211.074219 52.839844 211.074219 53.125 C 210.109375 53.125 209.144531 53.125 208.148438 53.125 C 208.136719 52.015625 208.128906 50.910156 208.121094 49.804688 C 208.117188 49.488281 208.117188 49.171875 208.113281 48.847656 C 208.109375 48.042969 208.125 47.238281 208.148438 46.429688 C 208.285156 46.292969 208.425781 46.15625 208.566406 46.011719 Z M 208.566406 46.011719 "/>
<path style=" stroke:none;fill-rule:nonzero;fill:rgb(18.039216%,19.215687%,57.254905%);fill-opacity:1;" d="M 81.085938 48.105469 C 81.085938 48.65625 81.085938 49.207031 81.085938 49.777344 C 80.671875 49.777344 80.257812 49.777344 79.832031 49.777344 C 79.96875 50.882812 80.109375 51.988281 80.25 53.125 C 79.285156 53.125 78.320312 53.125 77.324219 53.125 C 77.324219 52.847656 77.324219 52.570312 77.324219 52.289062 C 77.601562 52.289062 77.875 52.289062 78.160156 52.289062 C 78.160156 51.320312 78.160156 50.355469 78.160156 49.359375 C 77.882812 49.359375 77.609375 49.359375 77.324219 49.359375 C 77.324219 49.082031 77.324219 48.808594 77.324219 48.523438 C 78.558594 47.90625 79.722656 48.078125 81.085938 48.105469 Z M 81.085938 48.105469 "/>
<path style=" stroke:none;fill-rule:nonzero;fill:rgb(18.039216%,19.215687%,57.254905%);fill-opacity:1;" d="M 128.316406 48.105469 C 128.316406 48.65625 128.316406 49.207031 128.316406 49.777344 C 128.039062 49.777344 127.765625 49.777344 127.480469 49.777344 C 127.34375 50.605469 127.203125 51.433594 127.0625 52.289062 C 127.339844 52.289062 127.613281 52.289062 127.898438 52.289062 C 127.898438 52.5625 127.898438 52.839844 127.898438 53.125 C 126.796875 53.125 125.691406 53.125 124.554688 53.125 C 124.832031 51.882812 125.105469 50.640625 125.390625 49.359375 C 125.113281 49.359375 124.839844 49.359375 124.554688 49.359375 C 124.554688 49.082031 124.554688 48.808594 124.554688 48.523438 C 125.890625 48.078125 126.917969 48.074219 128.316406 48.105469 Z M 128.316406 48.105469 "/>
<path style=" stroke:none;fill-rule:nonzero;fill:rgb(18.039216%,19.215687%,57.254905%);fill-opacity:1;" d="M 112.851562 46.851562 C 113.265625 46.851562 113.679688 46.851562 114.105469 46.851562 C 114.105469 47.265625 114.105469 47.679688 114.105469 48.105469 C 114.382812 48.105469 114.65625 48.105469 114.941406 48.105469 C 114.941406 48.378906 114.941406 48.65625 114.941406 48.941406 C 114.664062 48.941406 114.390625 48.941406 114.105469 48.941406 C 114.105469 49.90625 114.105469 50.875 114.105469 51.871094 C 114.382812 51.871094 114.65625 51.871094 114.941406 51.871094 C 114.804688 52.285156 114.664062 52.699219 114.523438 53.125 C 113.832031 53.125 113.144531 53.125 112.433594 53.125 C 112.433594 51.742188 112.433594 50.363281 112.433594 48.941406 C 112.15625 48.804688 111.882812 48.664062 111.597656 48.523438 C 112.144531 47.6875 112.144531 47.6875 112.851562 46.851562 Z M 112.851562 46.851562 "/>
<path style=" stroke:none;fill-rule:nonzero;fill:rgb(18.039216%,19.215687%,57.254905%);fill-opacity:1;" d="M 200.207031 46.851562 C 200.621094 46.851562 201.035156 46.851562 201.460938 46.851562 C 201.460938 47.265625 201.460938 47.679688 201.460938 48.105469 C 201.738281 48.105469 202.011719 48.105469 202.296875 48.105469 C 202.296875 48.378906 202.296875 48.65625 202.296875 48.941406 C 202.019531 48.941406 201.746094 48.941406 201.460938 48.941406 C 201.460938 49.90625 201.460938 50.875 201.460938 51.871094 C 201.738281 51.871094 202.011719 51.871094 202.296875 51.871094 C 202.160156 52.285156 202.019531 52.699219 201.878906 53.125 C 201.1875 52.984375 200.5 52.847656 199.789062 52.707031 C 199.789062 51.464844 199.789062 50.222656 199.789062 48.941406 C 199.511719 48.804688 199.238281 48.664062 198.953125 48.523438 C 199.5 47.6875 199.5 47.6875 200.207031 46.851562 Z M 200.207031 46.851562 "/>
<path style=" stroke:none;fill-rule:nonzero;fill:rgb(18.039216%,19.215687%,57.254905%);fill-opacity:1;" d="M 131.242188 48.105469 C 131.242188 49.484375 131.242188 50.867188 131.242188 52.289062 C 131.519531 52.289062 131.792969 52.289062 132.078125 52.289062 C 132.078125 52.5625 132.078125 52.839844 132.078125 53.125 C 131.113281 53.125 130.148438 53.125 129.152344 53.125 C 129.152344 51.605469 129.152344 50.085938 129.152344 48.523438 C 129.988281 48.105469 129.988281 48.105469 131.242188 48.105469 Z M 131.242188 48.105469 "/>
<path style=" stroke:none;fill-rule:nonzero;fill:rgb(18.039216%,19.215687%,57.254905%);fill-opacity:1;" d="M 105.328125 48.105469 C 105.328125 49.484375 105.328125 50.867188 105.328125 52.289062 C 105.605469 52.289062 105.878906 52.289062 106.164062 52.289062 C 106.164062 52.5625 106.164062 52.839844 106.164062 53.125 C 105.199219 53.125 104.234375 53.125 103.238281 53.125 C 103.238281 51.605469 103.238281 50.085938 103.238281 48.523438 C 104.074219 48.105469 104.074219 48.105469 105.328125 48.105469 Z M 105.328125 48.105469 "/>
<path style=" stroke:none;fill-rule:nonzero;fill:rgb(18.039216%,19.215687%,57.254905%);fill-opacity:1;" d="M 198.117188 48.105469 C 198.253906 49.761719 198.394531 51.417969 198.535156 53.125 C 197.707031 53.125 196.878906 53.125 196.027344 53.125 C 196.164062 51.882812 196.304688 50.640625 196.445312 49.359375 C 196.167969 49.222656 195.894531 49.082031 195.609375 48.941406 C 196.863281 48.105469 196.863281 48.105469 198.117188 48.105469 Z M 198.117188 48.105469 "/>
<path style=" stroke:none;fill-rule:nonzero;fill:rgb(18.039216%,19.215687%,57.254905%);fill-opacity:1;" d="M 161.753906 48.105469 C 161.890625 49.761719 162.03125 51.417969 162.171875 53.125 C 161.34375 53.125 160.515625 53.125 159.664062 53.125 C 159.800781 51.882812 159.941406 50.640625 160.082031 49.359375 C 159.804688 49.222656 159.53125 49.082031 159.246094 48.941406 C 160.5 48.105469 160.5 48.105469 161.753906 48.105469 Z M 161.753906 48.105469 "/>
<path style=" stroke:none;fill-rule:nonzero;fill:rgb(18.039216%,19.215687%,57.254905%);fill-opacity:1;" d="M 175.808594 32.390625 C 176.320312 32.457031 176.320312 32.457031 176.84375 32.519531 C 177.234375 32.574219 177.234375 32.574219 177.636719 32.628906 C 177.359375 33.179688 177.085938 33.730469 176.800781 34.300781 C 175.558594 34.164062 174.316406 34.023438 173.039062 33.882812 C 173.039062 33.46875 173.039062 33.054688 173.039062 32.628906 C 174.09375 32.101562 174.648438 32.242188 175.808594 32.390625 Z M 175.808594 32.390625 "/>
<path style=" stroke:none;fill-rule:nonzero;fill:rgb(6.27451%,7.058824%,55.29412%);fill-opacity:1;" d="M 40.285156 32.585938 C 40.867188 32.589844 41.449219 32.59375 42.03125 32.601562 C 42.328125 32.601562 42.625 32.605469 42.933594 32.605469 C 43.667969 32.613281 44.40625 32.621094 45.140625 32.628906 C 45.140625 32.765625 45.140625 32.902344 45.140625 33.046875 C 44.757812 33.066406 44.375 33.085938 43.980469 33.109375 C 43.484375 33.140625 42.988281 33.171875 42.476562 33.203125 C 41.734375 33.246094 41.734375 33.246094 40.976562 33.289062 C 39.664062 33.339844 39.664062 33.339844 38.871094 34.300781 C 38.578125 34.851562 38.296875 35.410156 38.035156 35.972656 C 38.460938 32.640625 38.460938 32.640625 40.285156 32.585938 Z M 40.285156 32.585938 "/>
<path style=" stroke:none;fill-rule:nonzero;fill:rgb(18.039216%,19.215687%,57.254905%);fill-opacity:1;" d="M 81.503906 50.195312 C 82.605469 50.195312 83.710938 50.195312 84.847656 50.195312 C 84.847656 50.609375 84.847656 51.023438 84.847656 51.449219 C 83.746094 51.449219 82.640625 51.449219 81.503906 51.449219 C 81.503906 51.035156 81.503906 50.621094 81.503906 50.195312 Z M 81.503906 50.195312 "/>
<path style=" stroke:none;fill-rule:nonzero;fill:rgb(18.039216%,19.215687%,57.254905%);fill-opacity:1;" d="M 196.445312 46.011719 C 196.996094 46.011719 197.546875 46.011719 198.117188 46.011719 C 198.117188 46.425781 198.117188 46.839844 198.117188 47.269531 C 197.566406 47.269531 197.015625 47.269531 196.445312 47.269531 C 196.445312 46.855469 196.445312 46.441406 196.445312 46.011719 Z M 196.445312 46.011719 "/>
<path style=" stroke:none;fill-rule:nonzero;fill:rgb(18.039216%,19.215687%,57.254905%);fill-opacity:1;" d="M 160.082031 46.011719 C 160.632812 46.011719 161.183594 46.011719 161.753906 46.011719 C 161.753906 46.425781 161.753906 46.839844 161.753906 47.269531 C 161.203125 47.269531 160.652344 47.269531 160.082031 47.269531 C 160.082031 46.855469 160.082031 46.441406 160.082031 46.011719 Z M 160.082031 46.011719 "/>
<path style=" stroke:none;fill-rule:nonzero;fill:rgb(18.039216%,19.215687%,57.254905%);fill-opacity:1;" d="M 129.570312 46.011719 C 130.121094 46.011719 130.671875 46.011719 131.242188 46.011719 C 131.242188 46.425781 131.242188 46.839844 131.242188 47.269531 C 130.691406 47.269531 130.140625 47.269531 129.570312 47.269531 C 129.570312 46.855469 129.570312 46.441406 129.570312 46.011719 Z M 129.570312 46.011719 "/>
<path style=" stroke:none;fill-rule:nonzero;fill:rgb(18.039216%,19.215687%,57.254905%);fill-opacity:1;" d="M 104.074219 46.011719 C 104.902344 46.21875 104.902344 46.21875 105.746094 46.429688 C 105.609375 46.707031 105.46875 46.984375 105.328125 47.269531 C 104.777344 47.269531 104.226562 47.269531 103.65625 47.269531 C 103.792969 46.855469 103.933594 46.441406 104.074219 46.011719 Z M 104.074219 46.011719 "/>
</g>
</svg>
